# xmcd CD database file
#
# Track frame offsets:
#	150
#	15877
#	31132
#	45004
#	61137
#	75343
#	89548
#	113228
#	125984
#	140747
#	158934
#	177318
#	193624
#	210288
#	228688
#
# Disc length: 3226 seconds
#
# Revision: 0
# Processed by: cddbd v1.5.2PL0 Copyright (c) Steve Scherf et al.
# Submitted via: CDex 1.51
#
DISCID=bc0c980f
DTITLE=Various Artist - 15 Treffers country BELBCD1021
DYEAR=2012
DGENRE=Country
TTITLE0=01-Bellamy Brothers-Cowboy beat
TTITLE1=02-Die Campbells-The gambler
TTITLE2=03-Ray Dylan-Help me make it through the night
TTITLE3=04-Smokie-Oh Carol
TTITLE4=05-Eelizma Theron-Nine to five
TTITLE5=06-Ricus Nel-Some broken hearts never mend
TTITLE6=07-Kurt Darren-If you think you know how to love me
TTITLE7=08-Ferdi Nest-Annie's song
TTITLE8=09-Carlo Leone-Lonesome wins again
TTITLE9=10-Manie Jackson-Christmas without you (met Sarah Theron)
TTITLE10=11-Heinz Winckler-Stumblin' in (met Monique)
TTITLE11=12-Charlize Berg-I will always love you
TTITLE12=13-Dewald Dippenaar-For a few dollars more
TTITLE13=14-The country girls-Slow hand
TTITLE14=15-Peter Wills and Cathy McCan-Have you ever been lonely
EXTD=YEAR: 2012
EXTT0=
EXTT1=
EXTT2=
EXTT3=
EXTT4=
EXTT5=
EXTT6=
EXTT7=
EXTT8=
EXTT9=
EXTT10=
EXTT11=
EXTT12=
EXTT13=
EXTT14=
PLAYORDER=
